<svg xmlns="http://www.w3.org/2000/svg" viewBox="0 0 268.39 78.03"><defs><style>.cls-1{fill:#172431;}.cls-2{fill:#fde907;}.cls-3{fill:#7a18d6;}.cls-4{fill:#09bef2;}.cls-5{fill:#fd0da5;}</style></defs><title>Recurso 70</title><g id="Capa_2" data-name="Capa 2"><g id="Capa_1-2" data-name="Capa 1"><path class="cls-1" d="M31.49,8.73c8.13,0,14.64,2.5,21.11,8.11a1.32,1.32,0,0,1,.47.95,1.29,1.29,0,0,1-.4.95l-3.89,4h0l0,0a1,1,0,0,1-.72.44,1.32,1.32,0,0,1-.89-.48h0a24.45,24.45,0,0,0-15.54-6,21.93,21.93,0,0,0-16.11,7,23.92,23.92,0,0,0,0,32.74,22.14,22.14,0,0,0,16.16,6.92c6.82,0,11.45-2.84,15.43-5.91A1.49,1.49,0,0,1,48,57a1.06,1.06,0,0,1,.69.26l4,4h0a1,1,0,0,1,.32.72,1.51,1.51,0,0,1-.42,1.08,29.78,29.78,0,0,1-21.19,8.46A31.41,31.41,0,0,1,9.2,62.41a31.48,31.48,0,0,1,0-44.48,31.33,31.33,0,0,1,22.29-9.2"/><path class="cls-1" d="M70.09,9.61a1.35,1.35,0,0,1,1.28,1.28V63.23H95.7A1.28,1.28,0,0,1,97,64.51v4.86a1.28,1.28,0,0,1-1.28,1.28H64.26A1.28,1.28,0,0,1,63,69.37V10.89a1.29,1.29,0,0,1,1.28-1.28h5.83"/><path class="cls-1" d="M111.16,9.61a1.35,1.35,0,0,1,1.28,1.28V69.37a1.35,1.35,0,0,1-1.28,1.28h-5.83a1.35,1.35,0,0,1-1.28-1.28V10.89a1.35,1.35,0,0,1,1.28-1.28h5.83"/><path class="cls-1" d="M190.35,69.1,179.49,9.74a1.39,1.39,0,0,0-1.2-1h-1.42a1.29,1.29,0,0,0-1.12.7h0L157.37,54.59l-.1.25h-.89l-.1-.25L137.82,9.45h0a1.44,1.44,0,0,0-1.13-.7h-1.41a1.39,1.39,0,0,0-1.2,1L123.12,69.08a1.46,1.46,0,0,0,.24,1.18,1.37,1.37,0,0,0,1,.39h5.74a1.32,1.32,0,0,0,1.19-.9l6.32-39.19a1,1,0,0,1,.65-.4.85.85,0,0,1,.54.1l16,40.55h0a1.22,1.22,0,0,0,1.13.7h1.59a1.09,1.09,0,0,0,1.12-.7h0L174.55,30.2a.83.83,0,0,1,.38,0,1,1,0,0,1,.73.52l6.46,39a1.43,1.43,0,0,0,1.29.93h5.74a1.33,1.33,0,0,0,1-.39A1.37,1.37,0,0,0,190.35,69.1Z"/><path class="cls-1" d="M229.86,6.19A32.82,32.82,0,1,0,262.68,39,32.83,32.83,0,0,0,229.86,6.19Zm0,59.29A26.47,26.47,0,1,1,256.33,39,26.47,26.47,0,0,1,229.86,65.48Z"/><path class="cls-2" d="M229.62.3a32.55,32.55,0,0,0-21.73,4.75A33.42,33.42,0,0,0,194,22.51c-4.95,14.58-.72,30.88,10.53,40.55a36,36,0,0,0,23.28,8.55h0c.36,0,.61-.4.61-1a2.08,2.08,0,0,0,0-.25v-.21c0-.29-.07-1-.58-1.08-14-1.22-25.69-10.24-29.76-23-3.91-12.24.79-26.36,11.68-35.14,5.33-4.3,11.8-6.93,19.79-8.06.36,0,.55-.4.56-1V1.36C230.2.91,230.05.36,229.62.3Z"/><path class="cls-3" d="M262.44,39.39a.84.84,0,0,0-.7-.51l-.44,0c-.65,0-.88,1-.91,1.38C259.26,54.33,250,65.88,236.76,69.66,225,73,211.69,68.94,202.94,59.24c-4.82-5.33-7.86-12.14-9.06-20.23,0-.33-.2-1.35-.9-1.36h-.44c-.62,0-.84.85-.91,1.37-2,15.1,6.05,29.85,19.51,35.87A36.9,36.9,0,0,0,254.8,64.27a38,38,0,0,0,7.86-23A3.36,3.36,0,0,0,262.44,39.39Z"/><path class="cls-4" d="M252.08,11.06a36,36,0,0,0-24.67-5.67c-.76.09-1,1.26-.91,2.31l.06.35v0c0,.49.28,1.39.91,1.37,13.75-.64,26.34,6.43,32.09,18S262.8,53,253.25,63.16c-4.58,4.89-10.78,8.46-18.43,10.6-1,.28-.89,1.8-.84,2.25l.05.45c0,.32.2,1.36.9,1.36H235a33.57,33.57,0,0,0,32.37-26.29C270.93,35.79,264.77,19.52,252.08,11.06Z"/><path class="cls-5" d="M260.61,13.4A33.18,33.18,0,0,0,242.18,1.16,37,37,0,0,0,218.84,3.1a36.43,36.43,0,0,0-17.47,15.54,38.6,38.6,0,0,0-4.44,23.26,2.78,2.78,0,0,0,.35,1.53.71.71,0,0,0,.58.34h0l.44,0c.81-.06.93-1.37.91-1.82a32.57,32.57,0,0,1,20.08-32c11.26-4.67,24.91-2.08,34.78,6.6,5.29,4.65,9.09,11,11.31,18.86.19.67.47,1,.85,1l.44-.05c.83-.09.9-1.41.9-1.81A34.9,34.9,0,0,0,260.61,13.4Z"/></g></g></svg>